<svg width="35" height="35" viewBox="0 0 35 35" fill="none" xmlns="http://www.w3.org/2000/svg">
<path d="M31.6777 13.5728L18.1426 3.729C17.9562 3.59243 17.7311 3.5188 17.5 3.5188C17.2689 3.5188 17.0438 3.59243 16.8574 3.729L3.32227 13.5728C3.13535 13.7086 2.9963 13.9003 2.92507 14.1201C2.85383 14.3399 2.85409 14.5767 2.92579 14.7964L8.09717 30.7241C8.16855 30.9435 8.3075 31.1348 8.49412 31.2704C8.68075 31.4061 8.9055 31.4793 9.13623 31.4795H25.8672C26.3423 31.4795 26.7593 31.1753 26.9063 30.7241L32.0776 14.7964C32.2212 14.3452 32.0605 13.853 31.6777 13.5728ZM28.6631 14.2529L25.2964 15.3467L18.4605 10.4009V6.83252L28.6631 14.2529ZM15.9277 19.3867L12.8823 23.5669L10.9956 17.7837L15.9277 19.3867ZM11.9526 16.0781L16.543 12.7593V17.5718L11.9526 16.0781ZM17.5 20.4805L20.7095 24.8862H14.2905L17.5 20.4805ZM18.4605 12.7593L23.0474 16.0781L18.4605 17.5684V12.7593ZM19.0723 19.3867L24.0044 17.7837L22.1177 23.5669L19.0723 19.3867ZM16.543 6.83252V10.4009L9.70362 15.3467L6.33692 14.2529L16.543 6.83252ZM5.78663 16.0918L8.74317 17.0522L11.4912 25.4741L9.65235 28L5.78663 16.0918ZM11.1802 29.1553L12.8994 26.7969H22.104L23.8232 29.1553H11.1802ZM25.3477 28L23.5088 25.4741L26.2568 17.0522L29.2134 16.0918L25.3477 28Z" fill="#9A9A9A"/>
</svg>
