<svg width="35" height="35" viewBox="0 0 35 35" fill="none" xmlns="http://www.w3.org/2000/svg">
<path d="M28.4375 4.37496C27.4708 4.37573 26.5439 4.7601 25.8604 5.44365C25.1768 6.12721 24.7924 7.0541 24.7917 8.02079C24.7917 8.54142 24.9054 9.03579 25.1038 9.48642L22.2527 12.6933C21.2842 12.0248 20.1352 11.6667 18.9583 11.6666C17.8792 11.6666 16.8817 11.9816 16.014 12.492L12.6977 9.17725L12.6642 9.21079C12.95 8.63038 13.125 7.98434 13.125 7.29163C13.125 6.42633 12.8684 5.58047 12.3877 4.86101C11.9069 4.14154 11.2237 3.58079 10.4242 3.24965C9.62481 2.91852 8.74515 2.83188 7.89648 3.00069C7.04782 3.1695 6.26826 3.58618 5.65641 4.19804C5.04456 4.80989 4.62788 5.58944 4.45907 6.43811C4.29026 7.28677 4.3769 8.16644 4.70803 8.96587C5.03916 9.76529 5.59992 10.4486 6.31938 10.9293C7.03885 11.41 7.88471 11.6666 8.75 11.6666C9.44271 11.6666 10.0873 11.4916 10.6692 11.2058L10.6356 11.2393L13.9519 14.5541C13.4161 15.4438 13.1305 16.4615 13.125 17.5C13.125 18.9539 13.6792 20.2693 14.5615 21.2931L10.8033 25.0497C10.3821 24.8811 9.93287 24.7936 9.47917 24.7916C7.46959 24.7916 5.83334 26.4264 5.83334 28.4375C5.83334 30.4485 7.46959 32.0833 9.47917 32.0833C11.4888 32.0833 13.125 30.4485 13.125 28.4375C13.125 27.9693 13.0288 27.5245 12.8669 27.1118L17.0056 22.9731C17.6196 23.1918 18.27 23.3333 18.9583 23.3333C22.1754 23.3333 24.7917 20.717 24.7917 17.5C24.7917 16.5725 24.554 15.7077 24.1675 14.9275L27.2548 11.4523C27.6281 11.5806 28.0219 11.6666 28.4375 11.6666C30.4485 11.6666 32.0833 10.0318 32.0833 8.02079C32.0833 6.00975 30.4485 4.37496 28.4375 4.37496ZM18.9583 20.4166C17.3498 20.4166 16.0417 19.1085 16.0417 17.5C16.0417 15.8914 17.3498 14.5833 18.9583 14.5833C20.5669 14.5833 21.875 15.8914 21.875 17.5C21.875 19.1085 20.5669 20.4166 18.9583 20.4166Z" fill="#5AB4BD"/>
</svg>
