<svg width="35" height="35" viewBox="0 0 35 35" fill="none" xmlns="http://www.w3.org/2000/svg">
<path d="M30.1131 18.782C31.0435 17.798 31.7606 16.6324 32.2195 15.3583C32.6783 14.0842 32.8691 12.7291 32.7797 11.3778C32.6904 10.0266 32.3229 8.70836 31.7003 7.50577C31.0777 6.30318 30.2134 5.24216 29.1616 4.38921C28.1097 3.53627 26.893 2.90978 25.5878 2.54903C24.2825 2.18827 22.9168 2.10102 21.5762 2.29275C20.2357 2.48447 18.9492 2.95104 17.7973 3.6632C16.6455 4.37537 15.6532 5.31778 14.8827 6.43136C14.5104 5.44533 13.906 4.56352 13.1206 3.86062C12.3352 3.15773 11.3921 2.65443 10.3709 2.39337C9.3498 2.1323 8.2808 2.12115 7.25444 2.36086C6.22809 2.60057 5.27462 3.08407 4.47477 3.77044C3.67491 4.4568 3.05224 5.3258 2.65947 6.30386C2.2667 7.28191 2.11541 8.34021 2.2184 9.38914C2.32139 10.4381 2.67564 11.4467 3.25114 12.3297C3.82664 13.2127 4.60645 13.944 5.52452 14.4617C4.68284 15.0287 3.96234 15.7574 3.40494 16.6055C2.84755 17.4535 2.46439 18.404 2.27778 19.4015C2.09116 20.3991 2.10482 21.4238 2.31794 22.416C2.53107 23.4082 2.93941 24.3481 3.5192 25.181C4.09899 26.014 4.83866 26.7232 5.69515 27.2676C6.55163 27.812 7.50784 28.1806 8.50812 28.3519C9.50839 28.5233 10.5328 28.4939 11.5216 28.2657C12.5104 28.0374 13.444 27.6148 14.268 27.0223C14.4634 28.6849 15.287 30.21 16.5702 31.2851C17.8534 32.3603 19.499 32.9042 21.1702 32.8055C22.8413 32.7068 24.4115 31.973 25.5593 30.7543C26.707 29.5356 27.3454 27.9242 27.3437 26.2501C27.3437 26.1167 27.3317 25.9876 27.3241 25.8564C27.7968 26.0871 28.3122 26.2175 28.8378 26.2395C29.3634 26.2614 29.8878 26.1744 30.3782 25.9839C30.8685 25.7933 31.3141 25.5034 31.687 25.1324C32.0599 24.7613 32.352 24.3171 32.545 23.8277C32.7379 23.3383 32.8275 22.8143 32.8082 22.2886C32.7888 21.7629 32.6609 21.2469 32.4325 20.773C32.2041 20.2991 31.8802 19.8776 31.481 19.535C31.0819 19.1923 30.6161 18.936 30.1131 18.782ZM22.9687 4.37511C24.483 4.37511 25.9633 4.82414 27.2223 5.66542C28.4814 6.5067 29.4627 7.70245 30.0422 9.10144C30.6217 10.5004 30.7733 12.0399 30.4779 13.525C30.1825 15.0102 29.4533 16.3744 28.3825 17.4451C27.3118 18.5159 25.9476 19.2451 24.4624 19.5405C22.9772 19.8359 21.4378 19.6843 20.0388 19.1048C18.6398 18.5253 17.4441 17.544 16.6028 16.2849C15.7615 15.0259 15.3125 13.5456 15.3125 12.0314C15.3148 10.0015 16.1222 8.05546 17.5575 6.62013C18.9928 5.18481 20.9389 4.37743 22.9687 4.37511ZM8.74999 4.37511C9.61529 4.37511 10.4611 4.6317 11.1806 5.11243C11.9001 5.59316 12.4608 6.27645 12.792 7.07587C13.1231 7.8753 13.2097 8.75497 13.0409 9.60363C12.8721 10.4523 12.4554 11.2319 11.8436 11.8437C11.2317 12.4556 10.4522 12.8722 9.60351 13.041C8.75485 13.2099 7.87518 13.1232 7.07575 12.7921C6.27633 12.461 5.59304 11.9002 5.11231 11.1807C4.63158 10.4613 4.37499 9.61541 4.37499 8.75011C4.37644 7.59024 4.83784 6.47828 5.658 5.65812C6.47816 4.83796 7.59012 4.37656 8.74999 4.37511ZM20.7812 30.6251C19.9159 30.6251 19.0701 30.3685 18.3506 29.8878C17.6312 29.4071 17.0704 28.7238 16.7393 27.9244C16.4081 27.1249 16.3215 26.2453 16.4903 25.3966C16.6591 24.5479 17.0758 23.7684 17.6877 23.1565C18.2995 22.5447 19.0791 22.128 19.9277 21.9592C20.7764 21.7904 21.6561 21.877 22.4555 22.2081C23.2549 22.5393 23.9382 23.1 24.4189 23.8195C24.8997 24.539 25.1562 25.3848 25.1562 26.2501C25.1548 27.41 24.6934 28.5219 23.8732 29.3421C23.0531 30.1623 21.9411 30.6237 20.7812 30.6251Z" fill="#9A9A9A"/>
</svg>
