<svg width="20" height="20" viewBox="0 0 20 20" fill="none" xmlns="http://www.w3.org/2000/svg">
<g clip-path="url(#clip0_153_1106)">
<path d="M17.7167 10.6816H14.5359V9.09118H17.7167V10.6816ZM17.7167 11.5903H14.5359V13.1807H17.7167V11.5903ZM17.7167 4.0929H14.5359V5.68325H17.7167V4.09293V4.0929ZM17.7167 6.59204H14.5359V8.18239H17.7167V6.59204ZM17.7167 14.0895H14.5359V15.6799H17.7167V14.0894V14.0895ZM19.9136 17.2248C19.8228 17.6973 19.2548 17.7087 18.8754 17.7246H11.8096V19.7693H10.3987L0 17.9518V2.05043L10.4601 0.230591H11.8096V2.04133H18.6323C19.0163 2.05723 19.4388 2.02997 19.7728 2.25942C20.0068 2.59567 19.9841 3.02282 20 3.40903L19.9909 15.2368C19.9796 15.8979 20.0522 16.5727 19.9136 17.2248ZM8.33121 13.6601C7.70418 12.3878 7.06578 11.1246 6.44098 9.85227C7.05895 8.61407 7.66785 7.37133 8.27445 6.12856C7.75871 6.15356 7.24297 6.18536 6.72953 6.22172C6.34555 7.15547 5.89797 8.06426 5.59809 9.02985C5.31863 8.11879 4.94832 7.2418 4.6098 6.35348C4.10996 6.38075 3.61012 6.41028 3.11031 6.43981C3.63738 7.60309 4.19859 8.75036 4.70977 9.92043C4.1077 11.0564 3.54426 12.2083 2.96035 13.3511C3.45789 13.3715 3.95547 13.392 4.45301 13.3988C4.80746 12.4946 5.2482 11.6244 5.55719 10.702C5.83438 11.6926 6.30465 12.6082 6.6909 13.5556C7.23844 13.5942 7.78371 13.6283 8.33125 13.6601H8.33121ZM18.9164 3.12036H11.8096V4.0929H13.6272V5.68325H11.8096V6.59204H13.6272V8.18239H11.8096V9.09118H13.6272V10.6816H11.8096V11.5903H13.6272V13.1807H11.8096V14.0895H13.6272V15.6799H11.8096V16.7305H18.9164V3.12036Z" fill="#5AB4BD"/>
</g>
<defs>
<clipPath id="clip0_153_1106">
<rect width="20" height="20" fill="white"/>
</clipPath>
</defs>
</svg>
