<svg width="44" height="44" viewBox="0 0 44 44" fill="none" xmlns="http://www.w3.org/2000/svg">
<path d="M38.6703 35.9531C40.9143 33.2533 42.4749 30.0527 43.2203 26.6221C43.9657 23.1916 43.8739 19.632 42.9526 16.2444C42.0314 12.8568 40.3077 9.74097 37.9276 7.16042C35.5474 4.57987 32.5808 2.61054 29.2785 1.41902C25.9763 0.227509 22.4357 -0.15114 18.9562 0.31511C15.4767 0.78136 12.1607 2.07879 9.28862 4.09765C6.41659 6.11651 4.07304 8.7974 2.45624 11.9135C0.839434 15.0297 -0.00306655 18.4894 8.38695e-06 22C0.00118835 27.1034 1.79961 32.0434 5.0797 35.9531L5.04845 35.9797C5.15782 36.1109 5.28282 36.2234 5.39532 36.3531C5.53595 36.514 5.68751 36.6656 5.83282 36.8219C6.27032 37.2969 6.72032 37.7531 7.1922 38.1812C7.33595 38.3125 7.48438 38.4344 7.6297 38.5594C8.1297 38.9906 8.64376 39.4 9.17657 39.7812C9.24532 39.8281 9.30782 39.889 9.37657 39.9375V39.9187C13.0361 42.494 17.4017 43.8761 21.8766 43.8761C26.3514 43.8761 30.717 42.494 34.3766 39.9187V39.9375C34.4453 39.889 34.5063 39.8281 34.5766 39.7812C35.1078 39.3984 35.6234 38.9906 36.1234 38.5594C36.2688 38.4344 36.4172 38.3109 36.5609 38.1812C37.0328 37.7515 37.4828 37.2969 37.9203 36.8219C38.0656 36.6656 38.2156 36.514 38.3578 36.3531C38.4688 36.2234 38.5953 36.1109 38.7047 35.9781L38.6703 35.9531ZM21.875 9.49999C23.2657 9.49999 24.6251 9.91236 25.7814 10.685C26.9376 11.4576 27.8389 12.5557 28.371 13.8405C28.9032 15.1253 29.0425 16.539 28.7712 17.903C28.4999 19.2669 27.8302 20.5197 26.8469 21.5031C25.8635 22.4864 24.6107 23.1561 23.2467 23.4274C21.8828 23.6987 20.4691 23.5594 19.1843 23.0273C17.8995 22.4951 16.8013 21.5939 16.0287 20.4376C15.2561 19.2813 14.8438 17.9219 14.8438 16.5312C14.8438 14.6664 15.5846 12.878 16.9032 11.5594C18.2218 10.2408 20.0102 9.49999 21.875 9.49999ZM9.38595 35.9531C9.41305 33.9015 10.2468 31.943 11.7068 30.5014C13.1668 29.0599 15.1357 28.251 17.1875 28.25H26.5625C28.6143 28.251 30.5832 29.0599 32.0432 30.5014C33.5032 31.943 34.337 33.9015 34.3641 35.9531C30.9373 39.0411 26.4879 40.7501 21.875 40.7501C17.2621 40.7501 12.8128 39.0411 9.38595 35.9531Z" fill="#9A9A9A"/>
</svg>
