<svg width="35" height="35" viewBox="0 0 35 35" fill="none" xmlns="http://www.w3.org/2000/svg">
<path d="M10.2084 9.47925V6.56258C10.2084 6.17581 10.362 5.80487 10.6355 5.53138C10.909 5.25789 11.2799 5.10425 11.6667 5.10425H30.625C31.0118 5.10425 31.3827 5.25789 31.6562 5.53138C31.9297 5.80487 32.0834 6.17581 32.0834 6.56258V19.6876C32.0834 20.0744 31.9297 20.4453 31.6562 20.7188C31.3827 20.9923 31.0118 21.1459 30.625 21.1459H29.1667" stroke="#9A9A9A" stroke-width="2.91667" stroke-linecap="round" stroke-linejoin="round"/>
<path d="M23.3334 13.8542H4.37502C3.56961 13.8542 2.91669 14.5072 2.91669 15.3126V28.4376C2.91669 29.243 3.56961 29.8959 4.37502 29.8959H23.3334C24.1388 29.8959 24.7917 29.243 24.7917 28.4376V15.3126C24.7917 14.5072 24.1388 13.8542 23.3334 13.8542Z" stroke="#9A9A9A" stroke-width="2.91667" stroke-linecap="round" stroke-linejoin="round"/>
<path d="M18.2292 24.7918H19.6875M2.91669 20.4168H24.7917H2.91669ZM24.7917 16.771V25.521V16.771ZM2.91669 16.771V25.521V16.771ZM8.02085 24.7918H13.8542H8.02085Z" stroke="#9A9A9A" stroke-width="2.91667" stroke-linecap="round" stroke-linejoin="round"/>
</svg>
