<svg width="13" height="13" viewBox="0 0 13 13" fill="none" xmlns="http://www.w3.org/2000/svg">
<path fill-rule="evenodd" clip-rule="evenodd" d="M8.94776 1.15926C9.50303 0.603978 10.4033 0.603979 10.9585 1.15926L11.8408 2.04146C12.396 2.59673 12.396 3.49701 11.8408 4.05229L4.84541 11.0476C4.67454 11.2185 4.46295 11.343 4.23061 11.4094L1.5893 12.164C1.37651 12.2249 1.14749 12.1655 0.991 12.009C0.834513 11.8525 0.775165 11.6235 0.835959 11.4107L1.59063 8.76939C1.65701 8.5371 1.78151 8.32544 1.95237 8.15457L8.94776 1.15926ZM10.0968 2.02104C10.0174 1.94172 9.8888 1.94172 9.8095 2.02104L8.78364 3.04687L9.95315 4.21634L10.979 3.19051C11.0583 3.11118 11.0583 2.98257 10.979 2.90325L10.0968 2.02104ZM9.09133 5.07812L7.92189 3.90866L2.81416 9.01639C2.78975 9.04077 2.77197 9.07099 2.76248 9.10422L2.30915 10.6909L3.89579 10.2375C3.92898 10.2281 3.95921 10.2103 3.98362 10.1858L9.09133 5.07812Z" fill="#849AA9"/>
</svg>
