<svg width="14" height="18" viewBox="0 0 14 18" fill="none" xmlns="http://www.w3.org/2000/svg">
<path d="M13.5664 4.38867C13.6836 4.50586 13.75 4.66406 13.75 4.83008V16.875C13.75 17.2207 13.4707 17.5 13.125 17.5H0.625C0.279297 17.5 0 17.2207 0 16.875V0.625C0 0.279297 0.279297 0 0.625 0H8.91992C9.08594 0 9.24609 0.0664063 9.36328 0.183594L13.5664 4.38867ZM12.3086 5.11719L8.63281 1.44141V5.11719H12.3086ZM9.24258 11.1965C8.94609 11.1867 8.63086 11.2096 8.27285 11.2543C7.79824 10.9615 7.47871 10.5594 7.25176 9.96856L7.27266 9.88301L7.29687 9.78184C7.38086 9.42773 7.42598 9.16934 7.43945 8.90879C7.44961 8.71211 7.43867 8.53066 7.40371 8.3625C7.33926 7.99941 7.08242 7.78711 6.75879 7.77402C6.45703 7.76172 6.17969 7.93027 6.10879 8.19141C5.99336 8.61367 6.06094 9.16934 6.30566 10.117C5.99395 10.8602 5.58203 11.7314 5.30566 12.2174C4.93672 12.4076 4.64941 12.5807 4.40801 12.7725C4.08965 13.0258 3.89082 13.2861 3.83613 13.5596C3.80957 13.6863 3.84961 13.852 3.94082 13.9877C4.04434 14.1416 4.2002 14.2416 4.38711 14.2561C4.85879 14.2926 5.43848 13.8063 6.07852 12.708C6.14277 12.6865 6.21074 12.6639 6.29375 12.6357L6.52617 12.5572C6.67324 12.5076 6.77988 12.4721 6.88535 12.4379C7.34238 12.2891 7.68809 12.1951 8.00254 12.1416C8.54902 12.4342 9.18066 12.626 9.60606 12.626C9.95723 12.626 10.1945 12.4439 10.2803 12.1574C10.3555 11.9059 10.2959 11.6141 10.1342 11.4527C9.96699 11.2885 9.65957 11.21 9.24258 11.1965ZM4.39902 13.7047V13.6977L4.40156 13.691C4.43014 13.6171 4.46682 13.5467 4.51094 13.4809C4.59453 13.3523 4.70957 13.2172 4.85215 13.0732C4.92871 12.9961 5.0084 12.9209 5.10195 12.8365C5.12285 12.8178 5.25645 12.6988 5.28145 12.6754L5.49961 12.4723L5.34102 12.7248C5.10039 13.1084 4.88281 13.3846 4.69648 13.5646C4.62793 13.6311 4.56758 13.6799 4.51875 13.7113C4.50263 13.7221 4.48557 13.7314 4.46777 13.7391C4.45977 13.7424 4.45273 13.7443 4.4457 13.7449C4.43828 13.7459 4.43074 13.7449 4.42383 13.742C4.41648 13.7389 4.4102 13.7337 4.40579 13.7271C4.40137 13.7205 4.39902 13.7127 4.39902 13.7047ZM6.85879 9.44141L6.81465 9.51953L6.7873 9.43398C6.72676 9.24199 6.68223 8.95273 6.66992 8.6918C6.65586 8.39492 6.67949 8.2168 6.77324 8.2168C6.90488 8.2168 6.96523 8.42773 6.96992 8.74512C6.97422 9.02402 6.93027 9.31426 6.85859 9.44141H6.85879ZM6.74531 10.5832L6.7752 10.5041L6.81602 10.5783C7.04434 10.9932 7.34063 11.3393 7.66641 11.5805L7.73672 11.6324L7.65098 11.65C7.33203 11.716 7.03496 11.8152 6.62871 11.9791C6.67109 11.9619 6.20645 12.1521 6.08887 12.1973L5.98633 12.2365L6.04102 12.1412C6.28223 11.7213 6.50508 11.217 6.74512 10.5832H6.74531ZM9.82383 12.0727C9.67031 12.1332 9.33984 12.0791 8.75801 11.8307L8.61035 11.7678L8.77051 11.7561C9.22559 11.7223 9.54785 11.7473 9.73574 11.816C9.81582 11.8453 9.86914 11.8822 9.89277 11.9244C9.90521 11.9444 9.90939 11.9684 9.90443 11.9914C9.89948 12.0144 9.88577 12.0346 9.86621 12.0477C9.85379 12.0586 9.83941 12.0671 9.82383 12.0727Z" fill="#5AB4BD"/>
</svg>
