<svg width="35" height="35" viewBox="0 0 35 35" fill="none" xmlns="http://www.w3.org/2000/svg">
<path d="M17.5 0V2.69231C9.36251 2.69231 2.69232 9.3625 2.69232 17.5C2.69232 25.6375 9.36251 32.3077 17.5 32.3077C25.6375 32.3077 32.3077 25.6375 32.3077 17.5C32.3077 13.5329 30.8135 9.94808 28.1427 7.27731L26.25 9.17135C28.4267 11.3454 29.6154 14.1965 29.6154 17.5C29.6154 24.1702 24.1702 29.6154 17.5 29.6154C10.8298 29.6154 5.38463 24.1702 5.38463 17.5C5.38463 10.8298 10.8298 5.38462 17.5 5.38462V8.07692L24.2308 4.03846L17.5 0ZM20.3189 8.83481L16.9535 15.5656C16.5293 15.6809 16.155 15.933 15.8887 16.2828C15.6224 16.6325 15.479 17.0604 15.4808 17.5C15.4808 18.0355 15.6935 18.5491 16.0722 18.9278C16.4509 19.3065 16.9645 19.5192 17.5 19.5192H17.5848L21.9167 23.8525L23.8525 21.9167L19.5192 17.5848V17.5C19.5192 17.2348 19.4439 16.975 19.351 16.7421L22.7581 10.0113L20.3189 8.83346V8.83481Z" fill="#9A9A9A"/>
</svg>
