<svg width="35" height="35" viewBox="0 0 35 35" fill="none" xmlns="http://www.w3.org/2000/svg">
<path d="M7.34126 13.2957C5.96199 13.6427 4.75692 14.4815 3.95247 15.6544C3.14802 16.8273 2.79955 18.2536 2.97255 19.6653C3.14554 21.0771 3.82809 22.377 4.89194 23.321C5.9558 24.2649 7.32775 24.7879 8.75002 24.7917H10.2083M17.5 17.5V30.625V17.5ZM17.5 17.5L13.8542 20.4167L17.5 17.5ZM17.5 17.5L21.1458 20.4167L17.5 17.5Z" stroke="#9A9A9A" stroke-width="2.91667" stroke-linecap="round" stroke-linejoin="round"/>
<path d="M23.0854 10.4095C22.587 8.43575 21.3567 6.72537 19.644 5.62508C17.9312 4.52479 15.8642 4.11692 13.8619 4.48415C11.8595 4.85138 10.0718 5.96623 8.86095 7.6027C7.65013 9.23917 7.10687 11.2748 7.34128 13.297C7.34128 13.297 7.5644 14.5832 8.02086 15.3124" stroke="#9A9A9A" stroke-width="2.91667" stroke-linecap="round" stroke-linejoin="round"/>
<path d="M24.7917 24.7916C25.8213 24.7909 26.8392 24.5721 27.7782 24.1497C28.7172 23.7273 29.5561 23.1108 30.2396 22.3408C30.9232 21.5708 31.436 20.6648 31.7441 19.6824C32.0523 18.6999 32.1489 17.6634 32.0276 16.6409C31.9063 15.6184 31.5699 14.6332 31.0404 13.7502C30.5109 12.8671 29.8004 12.1062 28.9556 11.5175C28.1108 10.9288 27.151 10.5258 26.1392 10.3348C25.1274 10.1438 24.0867 10.1693 23.0855 10.4095L21.1459 10.9374" stroke="#9A9A9A" stroke-width="2.91667" stroke-linecap="round" stroke-linejoin="round"/>
</svg>
