<svg width="16" height="16" viewBox="0 0 16 16" fill="none" xmlns="http://www.w3.org/2000/svg">
<path d="M9.33333 7.33325V10.6666M2.66667 3.99992H13.3333L12.28 13.4799C12.2439 13.8062 12.0887 14.1076 11.8442 14.3266C11.5996 14.5455 11.2829 14.6666 10.9547 14.6666H5.04533C4.71709 14.6666 4.40037 14.5455 4.15583 14.3266C3.91129 14.1076 3.75611 13.8062 3.72 13.4799L2.66667 3.99992ZM4.89667 2.09792C5.0045 1.86923 5.17514 1.67592 5.38867 1.54053C5.6022 1.40514 5.84983 1.33325 6.10267 1.33325H9.89733C10.1503 1.33312 10.3981 1.40495 10.6117 1.54035C10.8254 1.67575 10.9961 1.86913 11.104 2.09792L12 3.99992H4L4.89667 2.09792V2.09792ZM1.33333 3.99992H14.6667H1.33333ZM6.66667 7.33325V10.6666V7.33325Z" stroke="#A9ACBB" stroke-width="1.66667" stroke-linecap="round" stroke-linejoin="round"/>
</svg>
