<svg width="35" height="35" viewBox="0 0 35 35" fill="none" xmlns="http://www.w3.org/2000/svg">
<path d="M30.3516 27.0703H6.83594V5.74219C6.83594 5.5918 6.71289 5.46875 6.5625 5.46875H4.64844C4.49805 5.46875 4.375 5.5918 4.375 5.74219V29.2578C4.375 29.4082 4.49805 29.5312 4.64844 29.5312H30.3516C30.502 29.5312 30.625 29.4082 30.625 29.2578V27.3438C30.625 27.1934 30.502 27.0703 30.3516 27.0703ZM9.84375 20.6445C9.84375 21.2247 10.0742 21.7811 10.4845 22.1913C10.8947 22.6016 11.4511 22.832 12.0312 22.832C12.6114 22.832 13.1678 22.6016 13.578 22.1913C13.9883 21.7811 14.2188 21.2247 14.2188 20.6445C14.2188 20.0644 13.9883 19.508 13.578 19.0977C13.1678 18.6875 12.6114 18.457 12.0312 18.457C11.4511 18.457 10.8947 18.6875 10.4845 19.0977C10.0742 19.508 9.84375 20.0644 9.84375 20.6445ZM13.877 12.9883C13.877 13.4234 14.0498 13.8407 14.3575 14.1484C14.6652 14.4561 15.0825 14.6289 15.5176 14.6289C15.9527 14.6289 16.37 14.4561 16.6777 14.1484C16.9854 13.8407 17.1582 13.4234 17.1582 12.9883C17.1582 12.5532 16.9854 12.1359 16.6777 11.8282C16.37 11.5205 15.9527 11.3477 15.5176 11.3477C15.0825 11.3477 14.6652 11.5205 14.3575 11.8282C14.0498 12.1359 13.877 12.5532 13.877 12.9883ZM19.2773 20.7812C19.2773 21.6515 19.623 22.4861 20.2384 23.1014C20.8538 23.7168 21.6884 24.0625 22.5586 24.0625C23.4288 24.0625 24.2634 23.7168 24.8788 23.1014C25.4941 22.4861 25.8398 21.6515 25.8398 20.7812C25.8398 19.911 25.4941 19.0764 24.8788 18.4611C24.2634 17.8457 23.4288 17.5 22.5586 17.5C21.6884 17.5 20.8538 17.8457 20.2384 18.4611C19.623 19.0764 19.2773 19.911 19.2773 20.7812ZM24.3359 10.0488C24.3359 10.5565 24.5376 11.0433 24.8966 11.4023C25.2555 11.7612 25.7424 11.9629 26.25 11.9629C26.7576 11.9629 27.2445 11.7612 27.6034 11.4023C27.9624 11.0433 28.1641 10.5565 28.1641 10.0488C28.1641 9.54119 27.9624 9.05434 27.6034 8.69538C27.2445 8.33643 26.7576 8.13477 26.25 8.13477C25.7424 8.13477 25.2555 8.33643 24.8966 8.69538C24.5376 9.05434 24.3359 9.54119 24.3359 10.0488Z" fill="#9A9A9A"/>
</svg>
