<svg width="35" height="35" viewBox="0 0 35 35" fill="none" xmlns="http://www.w3.org/2000/svg">
<path d="M26.1275 8.70625C27.5189 10.1348 28.533 11.8872 29.0784 13.8053H32.8125V20.37H29.0784C28.5337 22.2897 27.5195 24.0436 26.1275 25.4734L27.9978 28.7109L22.3147 31.9922L20.4487 28.7547C18.5139 29.2427 16.4882 29.2427 14.5534 28.7547L12.6853 31.9922L7.00219 28.7109L8.8725 25.4734C7.48049 24.0436 6.46634 22.2897 5.92156 20.37H2.1875V13.8075H5.92156C6.46634 11.8878 7.48049 10.1339 8.8725 8.70406L7 5.46875L12.6809 2.1875H12.6875L14.5556 5.42062C16.4904 4.93264 18.5161 4.93264 20.4509 5.42062L22.3125 2.1875H22.3169L28 5.46875L26.1297 8.70625H26.1275ZM24.0625 17.0887C24.0625 15.3483 23.3711 13.6791 22.1404 12.4484C20.9097 11.2177 19.2405 10.5262 17.5 10.5262C15.7595 10.5262 14.0903 11.2177 12.8596 12.4484C11.6289 13.6791 10.9375 15.3483 10.9375 17.0887C10.9375 18.8292 11.6289 20.4984 12.8596 21.7291C14.0903 22.9598 15.7595 23.6513 17.5 23.6513C19.2405 23.6513 20.9097 22.9598 22.1404 21.7291C23.3711 20.4984 24.0625 18.8292 24.0625 17.0887Z" fill="#9A9A9A"/>
</svg>
