<svg width="35" height="35" viewBox="0 0 35 35" fill="none" xmlns="http://www.w3.org/2000/svg">
<path d="M17.5 2.91675C9.43542 2.91675 2.91667 9.4355 2.91667 17.5001C2.91667 25.5647 9.43542 32.0834 17.5 32.0834C25.5646 32.0834 32.0833 25.5647 32.0833 17.5001C32.0833 9.4355 25.5646 2.91675 17.5 2.91675ZM17.5 29.1667C11.0688 29.1667 5.83333 23.9313 5.83333 17.5001C5.83333 11.0688 11.0688 5.83341 17.5 5.83341C23.9312 5.83341 29.1667 11.0688 29.1667 17.5001C29.1667 23.9313 23.9312 29.1667 17.5 29.1667ZM22.7354 10.2084L17.5 15.4438L12.2646 10.2084L10.2083 12.2647L15.4438 17.5001L10.2083 22.7355L12.2646 24.7917L17.5 19.5563L22.7354 24.7917L24.7917 22.7355L19.5562 17.5001L24.7917 12.2647L22.7354 10.2084Z" fill="white"/>
</svg>
